# xmcd
# Track frame offsets:
# 150
# 13205
# 27010
# 44715
# 61070
# 80276
#
# Disc length: 1348 seconds
# Revision: 0
# Processed by: cddbd v1.4PL0 Copyright (c) Steve Scherf et al.
# Submitted via: VisiTrax 2.9.5.181 - For more info visit www.synapsa.com
#
DISCID=42054206
DTITLE=Green Carpet Bluesband - Green Carpet Bluesband ( Demo )
DYEAR=2002
DGENRE=Blues
TTITLE0=Dust my blues
TTITLE1=Born in Chicago
TTITLE2=Lonely Avenue
TTITLE3=Confessin´the blues
TTITLE4=Blues with a feeling
TTITLE5=Open E-Bluz
EXTD=
EXTT0=
EXTT1=
EXTT2=
EXTT3=
EXTT4=
EXTT5=
PLAYORDER=
